<svg xmlns="http://www.w3.org/2000/svg" xmlns:xlink="http://www.w3.org/1999/xlink" width="300" zoomAndPan="magnify" viewBox="0 0 224.87999 67.499998" height="90" preserveAspectRatio="xMidYMid meet" version="1.0"><defs><g/></defs><g fill="#000000" fill-opacity="1"><g transform="translate(1.411208, 44.968154)"><g><path d="M 7.53125 -23 L 7.53125 -9.234375 C 7.53125 -7.859375 7.867188 -6.800781 8.546875 -6.0625 C 9.222656 -5.320312 10.21875 -4.953125 11.53125 -4.953125 C 12.84375 -4.953125 13.847656 -5.320312 14.546875 -6.0625 C 15.242188 -6.800781 15.59375 -7.859375 15.59375 -9.234375 L 15.59375 -23 L 21.203125 -23 L 21.203125 -9.265625 C 21.203125 -7.210938 20.765625 -5.476562 19.890625 -4.0625 C 19.015625 -2.644531 17.835938 -1.570312 16.359375 -0.84375 C 14.890625 -0.125 13.25 0.234375 11.4375 0.234375 C 9.625 0.234375 8 -0.117188 6.5625 -0.828125 C 5.132812 -1.546875 4.003906 -2.617188 3.171875 -4.046875 C 2.347656 -5.472656 1.9375 -7.210938 1.9375 -9.265625 L 1.9375 -23 Z M 7.53125 -23 "/></g></g></g><g fill="#000000" fill-opacity="1"><g transform="translate(24.507624, 44.968154)"><g><path d="M 7.640625 -15.234375 C 8.296875 -16.242188 9.113281 -17.035156 10.09375 -17.609375 C 11.070312 -18.191406 12.164062 -18.484375 13.375 -18.484375 L 13.375 -12.546875 L 11.828125 -12.546875 C 10.429688 -12.546875 9.382812 -12.242188 8.6875 -11.640625 C 7.988281 -11.046875 7.640625 -9.992188 7.640625 -8.484375 L 7.640625 0 L 2.03125 0 L 2.03125 -18.28125 L 7.640625 -18.28125 Z M 7.640625 -15.234375 "/></g></g></g><g fill="#000000" fill-opacity="1"><g transform="translate(38.529278, 44.968154)"><g><path d="M 7.640625 -15.6875 C 8.160156 -16.539062 8.910156 -17.226562 9.890625 -17.75 C 10.878906 -18.28125 12.003906 -18.546875 13.265625 -18.546875 C 14.773438 -18.546875 16.140625 -18.160156 17.359375 -17.390625 C 18.585938 -16.628906 19.554688 -15.539062 20.265625 -14.125 C 20.972656 -12.707031 21.328125 -11.054688 21.328125 -9.171875 C 21.328125 -7.296875 20.972656 -5.640625 20.265625 -4.203125 C 19.554688 -2.773438 18.585938 -1.671875 17.359375 -0.890625 C 16.140625 -0.117188 14.773438 0.265625 13.265625 0.265625 C 11.984375 0.265625 10.859375 0.0078125 9.890625 -0.5 C 8.929688 -1.019531 8.179688 -1.707031 7.640625 -2.5625 L 7.640625 0 L 2.03125 0 L 2.03125 -24.25 L 7.640625 -24.25 Z M 15.625 -9.171875 C 15.625 -10.566406 15.234375 -11.660156 14.453125 -12.453125 C 13.679688 -13.253906 12.726562 -13.65625 11.59375 -13.65625 C 10.476562 -13.65625 9.535156 -13.25 8.765625 -12.4375 C 7.992188 -11.632812 7.609375 -10.535156 7.609375 -9.140625 C 7.609375 -7.742188 7.992188 -6.640625 8.765625 -5.828125 C 9.535156 -5.023438 10.476562 -4.625 11.59375 -4.625 C 12.707031 -4.625 13.65625 -5.03125 14.4375 -5.84375 C 15.226562 -6.664062 15.625 -7.773438 15.625 -9.171875 Z M 15.625 -9.171875 "/></g></g></g><g fill="#000000" fill-opacity="1"><g transform="translate(60.773915, 44.968154)"><g><path d="M 0.921875 -9.171875 C 0.921875 -11.054688 1.273438 -12.707031 1.984375 -14.125 C 2.691406 -15.539062 3.65625 -16.628906 4.875 -17.390625 C 6.101562 -18.160156 7.472656 -18.546875 8.984375 -18.546875 C 10.265625 -18.546875 11.390625 -18.28125 12.359375 -17.75 C 13.335938 -17.226562 14.085938 -16.539062 14.609375 -15.6875 L 14.609375 -18.28125 L 20.21875 -18.28125 L 20.21875 0 L 14.609375 0 L 14.609375 -2.59375 C 14.066406 -1.738281 13.304688 -1.046875 12.328125 -0.515625 C 11.359375 0.00390625 10.226562 0.265625 8.9375 0.265625 C 7.457031 0.265625 6.101562 -0.117188 4.875 -0.890625 C 3.65625 -1.671875 2.691406 -2.773438 1.984375 -4.203125 C 1.273438 -5.640625 0.921875 -7.296875 0.921875 -9.171875 Z M 14.609375 -9.140625 C 14.609375 -10.535156 14.21875 -11.632812 13.4375 -12.4375 C 12.664062 -13.25 11.722656 -13.65625 10.609375 -13.65625 C 9.492188 -13.65625 8.550781 -13.253906 7.78125 -12.453125 C 7.007812 -11.660156 6.625 -10.566406 6.625 -9.171875 C 6.625 -7.773438 7.007812 -6.664062 7.78125 -5.84375 C 8.550781 -5.03125 9.492188 -4.625 10.609375 -4.625 C 11.722656 -4.625 12.664062 -5.023438 13.4375 -5.828125 C 14.21875 -6.640625 14.609375 -7.742188 14.609375 -9.140625 Z M 14.609375 -9.140625 "/></g></g></g><g fill="#000000" fill-opacity="1"><g transform="translate(83.018553, 44.968154)"><g><path d="M 13.171875 -18.484375 C 15.316406 -18.484375 17.023438 -17.785156 18.296875 -16.390625 C 19.578125 -15.003906 20.21875 -13.101562 20.21875 -10.6875 L 20.21875 0 L 14.640625 0 L 14.640625 -9.921875 C 14.640625 -11.148438 14.320312 -12.101562 13.6875 -12.78125 C 13.0625 -13.457031 12.210938 -13.796875 11.140625 -13.796875 C 10.066406 -13.796875 9.210938 -13.457031 8.578125 -12.78125 C 7.953125 -12.101562 7.640625 -11.148438 7.640625 -9.921875 L 7.640625 0 L 2.03125 0 L 2.03125 -18.28125 L 7.640625 -18.28125 L 7.640625 -15.859375 C 8.203125 -16.671875 8.960938 -17.3125 9.921875 -17.78125 C 10.890625 -18.25 11.972656 -18.484375 13.171875 -18.484375 Z M 13.171875 -18.484375 "/></g></g></g><g fill="#000000" fill-opacity="1"><g transform="translate(105.099389, 44.968154)"><g/></g></g><g fill="#000000" fill-opacity="1"><g transform="translate(112.044699, 44.968154)"><g><path d="M 7.53125 -23 L 7.53125 -9.234375 C 7.53125 -7.859375 7.867188 -6.800781 8.546875 -6.0625 C 9.222656 -5.320312 10.21875 -4.953125 11.53125 -4.953125 C 12.84375 -4.953125 13.847656 -5.320312 14.546875 -6.0625 C 15.242188 -6.800781 15.59375 -7.859375 15.59375 -9.234375 L 15.59375 -23 L 21.203125 -23 L 21.203125 -9.265625 C 21.203125 -7.210938 20.765625 -5.476562 19.890625 -4.0625 C 19.015625 -2.644531 17.835938 -1.570312 16.359375 -0.84375 C 14.890625 -0.125 13.25 0.234375 11.4375 0.234375 C 9.625 0.234375 8 -0.117188 6.5625 -0.828125 C 5.132812 -1.546875 4.003906 -2.617188 3.171875 -4.046875 C 2.347656 -5.472656 1.9375 -7.210938 1.9375 -9.265625 L 1.9375 -23 Z M 7.53125 -23 "/></g></g></g><g fill="#000000" fill-opacity="1"><g transform="translate(135.141114, 44.968154)"><g><path d="M 12.21875 -4.75 L 12.21875 0 L 9.375 0 C 7.34375 0 5.757812 -0.492188 4.625 -1.484375 C 3.488281 -2.484375 2.921875 -4.109375 2.921875 -6.359375 L 2.921875 -13.625 L 0.6875 -13.625 L 0.6875 -18.28125 L 2.921875 -18.28125 L 2.921875 -22.734375 L 8.515625 -22.734375 L 8.515625 -18.28125 L 12.1875 -18.28125 L 12.1875 -13.625 L 8.515625 -13.625 L 8.515625 -6.296875 C 8.515625 -5.742188 8.644531 -5.347656 8.90625 -5.109375 C 9.175781 -4.867188 9.613281 -4.75 10.21875 -4.75 Z M 12.21875 -4.75 "/></g></g></g><g fill="#000000" fill-opacity="1"><g transform="translate(148.442037, 44.968154)"><g><path d="M 10.359375 0.265625 C 8.566406 0.265625 6.953125 -0.113281 5.515625 -0.875 C 4.085938 -1.644531 2.960938 -2.738281 2.140625 -4.15625 C 1.328125 -5.582031 0.921875 -7.242188 0.921875 -9.140625 C 0.921875 -11.015625 1.332031 -12.664062 2.15625 -14.09375 C 2.988281 -15.53125 4.125 -16.628906 5.5625 -17.390625 C 7.007812 -18.160156 8.628906 -18.546875 10.421875 -18.546875 C 12.210938 -18.546875 13.828125 -18.160156 15.265625 -17.390625 C 16.710938 -16.628906 17.847656 -15.53125 18.671875 -14.09375 C 19.503906 -12.664062 19.921875 -11.015625 19.921875 -9.140625 C 19.921875 -7.265625 19.5 -5.609375 18.65625 -4.171875 C 17.820312 -2.742188 16.675781 -1.644531 15.21875 -0.875 C 13.769531 -0.113281 12.148438 0.265625 10.359375 0.265625 Z M 10.359375 -4.59375 C 11.421875 -4.59375 12.328125 -4.984375 13.078125 -5.765625 C 13.835938 -6.554688 14.21875 -7.679688 14.21875 -9.140625 C 14.21875 -10.609375 13.851562 -11.734375 13.125 -12.515625 C 12.394531 -13.304688 11.492188 -13.703125 10.421875 -13.703125 C 9.328125 -13.703125 8.421875 -13.3125 7.703125 -12.53125 C 6.984375 -11.757812 6.625 -10.628906 6.625 -9.140625 C 6.625 -7.679688 6.976562 -6.554688 7.6875 -5.765625 C 8.394531 -4.984375 9.285156 -4.59375 10.359375 -4.59375 Z M 10.359375 -4.59375 "/></g></g></g><g fill="#000000" fill-opacity="1"><g transform="translate(169.310722, 44.968154)"><g><path d="M 7.640625 -15.6875 C 8.179688 -16.539062 8.929688 -17.226562 9.890625 -17.75 C 10.859375 -18.28125 11.984375 -18.546875 13.265625 -18.546875 C 14.773438 -18.546875 16.140625 -18.160156 17.359375 -17.390625 C 18.585938 -16.628906 19.554688 -15.539062 20.265625 -14.125 C 20.972656 -12.707031 21.328125 -11.054688 21.328125 -9.171875 C 21.328125 -7.296875 20.972656 -5.640625 20.265625 -4.203125 C 19.554688 -2.773438 18.585938 -1.671875 17.359375 -0.890625 C 16.140625 -0.117188 14.773438 0.265625 13.265625 0.265625 C 12.003906 0.265625 10.882812 0.00390625 9.90625 -0.515625 C 8.9375 -1.046875 8.179688 -1.726562 7.640625 -2.5625 L 7.640625 8.71875 L 2.03125 8.71875 L 2.03125 -18.28125 L 7.640625 -18.28125 Z M 15.625 -9.171875 C 15.625 -10.566406 15.234375 -11.660156 14.453125 -12.453125 C 13.679688 -13.253906 12.726562 -13.65625 11.59375 -13.65625 C 10.476562 -13.65625 9.535156 -13.25 8.765625 -12.4375 C 7.992188 -11.632812 7.609375 -10.535156 7.609375 -9.140625 C 7.609375 -7.742188 7.992188 -6.640625 8.765625 -5.828125 C 9.535156 -5.023438 10.476562 -4.625 11.59375 -4.625 C 12.707031 -4.625 13.65625 -5.03125 14.4375 -5.84375 C 15.226562 -6.664062 15.625 -7.773438 15.625 -9.171875 Z M 15.625 -9.171875 "/></g></g></g><g fill="#000000" fill-opacity="1"><g transform="translate(191.555359, 44.968154)"><g><path d="M 4.84375 -20.1875 C 3.863281 -20.1875 3.0625 -20.472656 2.4375 -21.046875 C 1.8125 -21.628906 1.5 -22.347656 1.5 -23.203125 C 1.5 -24.078125 1.8125 -24.800781 2.4375 -25.375 C 3.0625 -25.957031 3.863281 -26.25 4.84375 -26.25 C 5.8125 -26.25 6.601562 -25.957031 7.21875 -25.375 C 7.84375 -24.800781 8.15625 -24.078125 8.15625 -23.203125 C 8.15625 -22.347656 7.84375 -21.628906 7.21875 -21.046875 C 6.601562 -20.472656 5.8125 -20.1875 4.84375 -20.1875 Z M 7.640625 -18.28125 L 7.640625 0 L 2.03125 0 L 2.03125 -18.28125 Z M 7.640625 -18.28125 "/></g></g></g><g fill="#000000" fill-opacity="1"><g transform="translate(201.219819, 44.968154)"><g><path d="M 0.921875 -9.171875 C 0.921875 -11.054688 1.273438 -12.707031 1.984375 -14.125 C 2.691406 -15.539062 3.65625 -16.628906 4.875 -17.390625 C 6.101562 -18.160156 7.472656 -18.546875 8.984375 -18.546875 C 10.265625 -18.546875 11.390625 -18.28125 12.359375 -17.75 C 13.335938 -17.226562 14.085938 -16.539062 14.609375 -15.6875 L 14.609375 -18.28125 L 20.21875 -18.28125 L 20.21875 0 L 14.609375 0 L 14.609375 -2.59375 C 14.066406 -1.738281 13.304688 -1.046875 12.328125 -0.515625 C 11.359375 0.00390625 10.226562 0.265625 8.9375 0.265625 C 7.457031 0.265625 6.101562 -0.117188 4.875 -0.890625 C 3.65625 -1.671875 2.691406 -2.773438 1.984375 -4.203125 C 1.273438 -5.640625 0.921875 -7.296875 0.921875 -9.171875 Z M 14.609375 -9.140625 C 14.609375 -10.535156 14.21875 -11.632812 13.4375 -12.4375 C 12.664062 -13.25 11.722656 -13.65625 10.609375 -13.65625 C 9.492188 -13.65625 8.550781 -13.253906 7.78125 -12.453125 C 7.007812 -11.660156 6.625 -10.566406 6.625 -9.171875 C 6.625 -7.773438 7.007812 -6.664062 7.78125 -5.84375 C 8.550781 -5.03125 9.492188 -4.625 10.609375 -4.625 C 11.722656 -4.625 12.664062 -5.023438 13.4375 -5.828125 C 14.21875 -6.640625 14.609375 -7.742188 14.609375 -9.140625 Z M 14.609375 -9.140625 "/></g></g></g></svg>